<svg xmlns="http://www.w3.org/2000/svg" width="31" height="43" viewBox="0 0 31 43">
    <g fill="none" fill-rule="evenodd" stroke="#FFF" stroke-linecap="round" stroke-linejoin="round" stroke-width="3">
        <path d="M4.445 26.481l22.089-.106c1.472-.007 2.622 1.287 2.449 2.764-.488 4.163-2.77 11.57-12.8 11.853-10.157.287-13.212-7.204-14.128-11.528-.325-1.533.838-2.976 2.39-2.983zM7.131 20.281l-1.192-3.37c-.648-2.003-.052-4.147 1.584-5.698 2.004-1.9 2.412-4.644 1.026-6.902L7.131 2M14.495 20.281l-1.193-3.37c-.648-2.003-.052-4.147 1.584-5.698 2.004-1.9 2.412-4.644 1.027-6.902L14.495 2M23.086 20.281l-1.193-3.37c-.648-2.003-.052-4.147 1.584-5.698 2.004-1.9 2.412-4.644 1.027-6.902L23.086 2"/>
    </g>
</svg>
