<svg xmlns="http://www.w3.org/2000/svg" width="64" height="18" viewBox="0 0 64 18">
    <g fill="#FFF" fill-rule="evenodd">
        <path d="M23.718 5.243H21.9c-.49 0-.435.47-.435.47 0 .414-.028 4.876-.049 6.549-.04 1.237-.66 2.283-1.73 2.763-1.347.603-3.453.372-3.577-1.723-.02-.324-.064-7.471-.064-7.568 0-.25-.09-.49-.489-.49h-1.73c-.47 0-.52.299-.52.58 0 2.005-.012 4.32.007 6.326.007.678-.001 1.377.099 2.047.287 1.916 1.446 3.027 3.269 3.466 1.953.471 4.213-.244 5.323-1.552.03.077.422 1.047.468 1.144.108.229.198.312.423.312h.962c.328 0 .318-.245.322-.414.031-3.606.031-7.864.031-11.47 0-.268-.138-.44-.492-.44M10.443 13.624c-.274-.21-.512-.124-.68.072-.05.057-1.513 1.859-3.876 1.507-1.974-.294-3.097-1.837-3.135-3.765-.034-1.728.926-3.084 2.32-3.618.863-.332 2.4-.417 3.575.342.175.113.592.425.759.57.178.154.372.313.683.1.181-.125.764-.604 1.129-.922.433-.378.156-.636-.186-1.015-1.39-1.55-3.538-2.044-5.411-1.825C2.64 5.419.476 7.544.164 10.581c-.285 2.781.972 5.54 3.73 6.664.961.392 1.802.484 2.606.493 2.48.028 4.173-1.449 4.93-2.381.233-.286.31-.506.09-.74-.203-.199-1.02-.95-1.077-.993M50.221.266c-3.7-.361-4.907 1.345-4.838 4.123v.854h-1.505c-.385 0-.53.177-.53.441v1.434c0 .31.158.407.44.407l1.595-.003v3.942l.003 5.603c0 .45.251.5.502.5h1.758c.444 0 .511-.284.511-.584V7.522h2.091c.241 0 .402-.107.402-.442V5.646c0-.316-.21-.403-.46-.403h-2.033V4.125c0-.39-.13-1.668 1.75-1.548.137.009.257.026.385.026.248 0 .432-.146.43-.428l.03-1.386c0-.246-.088-.48-.53-.523M58.026.842c0-.45.308-.576.623-.576h1.648c.501 0 .569.395.569.614v4.363h2.529c.307 0 .445.192.445.441v1.402c0 .316-.215.436-.515.436h-2.46v5.723c0 .528.004 1.834 1.41 1.85.137 0 .535.006.713.009.358.006.505.315.554.502l.352 1.569c.037.259-.165.379-.378.392h-.004c-.906.036-1.642.027-2.252-.066-2.117-.32-3.22-1.545-3.22-3.893L58.026.842M32.388.842c0-.45.309-.576.623-.576h1.648c.501 0 .569.395.569.614v4.363h2.529c.307 0 .445.192.445.441v1.402c0 .316-.215.436-.515.436h-2.459v5.723c0 .528.003 1.834 1.41 1.85.136 0 .534.006.712.009.359.006.505.315.554.502l.352 1.569c.038.259-.165.379-.378.392h-.004c-.905.036-1.641.027-2.252-.066-2.116-.32-3.22-1.545-3.22-3.893L32.388.842M54.782 5.243h-1.648c-.31 0-.562.165-.562.51v11.271c0 .3.252.542.562.542h1.648c.31 0 .562-.242.562-.542V5.784c0-.368-.251-.541-.562-.541M29.133.266h-1.649c-.31 0-.561.165-.561.51v16.248c0 .3.251.542.561.542h1.65c.31 0 .56-.242.56-.542V.808c0-.369-.25-.542-.56-.542M53.373 3.396h1.17c.452 0 .818-.353.818-.789V1.055c0-.436-.366-.79-.818-.79h-1.17c-.452 0-.818.354-.818.79v1.552c0 .436.366.79.818.79M41.09 17.567h1.17c.451 0 .817-.354.817-.79v-1.551c0-.436-.366-.79-.818-.79h-1.17c-.452 0-.818.354-.818.79v1.552c0 .435.366.789.818.789"/>
    </g>
</svg>
