<svg xmlns="http://www.w3.org/2000/svg" width="143" height="48" viewBox="0 0 143 48">
    <g fill="none" fill-rule="evenodd">
        <path fill="#FFF" d="M40.489 21.723H1.708c-.73 0-1.323.6-1.323 1.337v1.897c0 .738.593 1.337 1.323 1.337h38.78c.731 0 1.325-.6 1.325-1.337V23.06c0-.737-.594-1.337-1.324-1.337M23.74 29.348a1.317 1.317 0 0 0-1.003-.466h-3.355c-.386 0-.752.17-1.004.466L8.177 41.3c-.23.271-.343.616-.316.972.027.356.19.68.457.913l1.426 1.237a1.315 1.315 0 0 0 1.866-.143l8.672-10.153a1.02 1.02 0 0 1 1.555 0l8.68 10.201a1.317 1.317 0 0 0 1.866.143l1.425-1.236c.268-.233.43-.557.457-.913a1.34 1.34 0 0 0-.316-.972l-10.208-12"/>
        <path fill="#FFF" d="M21.759 39.676h-1.4a.996.996 0 0 0-.99 1v5.693c0 .552.444 1 .99 1h1.4c.547 0 .99-.448.99-1v-5.692c0-.553-.443-1-.99-1"/>
        <path fill="#DA2C6C" d="M20.35 5.199h1.418c.547 0 .99-.448.99-1V1c0-.553-.443-1.001-.99-1.001h-1.417a.996.996 0 0 0-.991 1v3.198c0 .553.443 1 .99 1"/>
        <path fill="#00B4DF" d="M12.167 30.503l-.777-1.168a.985.985 0 0 0-1.374-.274l-6.274 4.244c-.455.308-.576.93-.27 1.39l.776 1.168c.305.458.92.58 1.374.273l6.273-4.244c.455-.308.577-.93.272-1.389"/>
        <path fill="#FFF" d="M30.77 17.934c.304.458.919.58 1.372.273l6.274-4.244c.455-.308.577-.93.27-1.389l-.775-1.169a.985.985 0 0 0-1.375-.274l-6.273 4.245c-.455.308-.577.93-.271 1.39l.777 1.168"/>
        <path fill="#FBD020" d="M38.452 33.355l-6.275-4.244a.984.984 0 0 0-1.373.274l-.776 1.169a1.006 1.006 0 0 0 .27 1.388l6.275 4.244a.984.984 0 0 0 1.373-.273l.777-1.168a1.007 1.007 0 0 0-.27-1.39"/>
        <path fill="#FFF" d="M3.772 13.99l6.273 4.245a.985.985 0 0 0 1.374-.274l.777-1.168a1.007 1.007 0 0 0-.271-1.39L5.65 11.16a.984.984 0 0 0-1.375.274L3.5 12.602a1.007 1.007 0 0 0 .272 1.389M21.06 11.012c1.372 0 2.485 1.124 2.485 2.51 0 1.387-1.113 2.511-2.486 2.511-1.372 0-2.485-1.124-2.485-2.51 0-1.387 1.113-2.51 2.485-2.51zm0 8.61c3.334 0 6.038-2.73 6.038-6.1 0-3.368-2.704-6.099-6.039-6.099-3.335 0-6.038 2.731-6.038 6.1 0 3.368 2.703 6.1 6.038 6.1z"/>
        <g fill="#FFF">
            <path d="M87.324 18.3h-2.146c-.579 0-.514.55-.514.55 0 .484-.034 5.704-.058 7.661-.046 1.448-.78 2.671-2.044 3.232-1.59.706-4.076.435-4.222-2.015-.024-.379-.076-8.74-.076-8.854 0-.29-.106-.573-.577-.573h-2.043c-.555 0-.613.35-.613.678 0 2.346-.016 5.055.008 7.401.007.793-.002 1.611.116 2.396.339 2.24 1.707 3.54 3.86 4.054 2.307.551 4.975-.286 6.285-1.815.036.089.5 1.224.553 1.337.127.268.233.365.5.365h1.136c.386 0 .375-.287.38-.484.036-4.218.036-9.2.036-13.418 0-.313-.163-.515-.581-.515M72.17 28.244c-.323-.241-.604-.143-.801.083-.059.067-1.785 2.15-4.572 1.743-2.33-.34-3.654-2.124-3.698-4.353-.04-1.997 1.093-3.565 2.735-4.182 1.02-.383 2.83-.48 4.218.396.207.13.697.491.895.658.21.179.438.363.805.116.214-.145.902-.698 1.332-1.065.51-.437.185-.735-.219-1.173-1.64-1.792-4.173-2.363-6.383-2.11-3.514.403-6.068 2.86-6.435 6.37-.337 3.215 1.147 6.403 4.398 7.702 1.134.454 2.127.56 3.074.57 2.927.033 4.922-1.674 5.816-2.752.274-.33.366-.584.105-.855a52.33 52.33 0 0 0-1.27-1.148M99.057 17.9c-.73-.329-1.672-.342-2.34-.253-1.663.223-2.697 1.045-3.472 2.153a61.06 61.06 0 0 0-.509-1.533c-.095-.224-.202-.34-.532-.34l-1.031-.002c-.452 0-.404.402-.404.544 0 1.073.005 2.612.005 3.685 0 3.068-.002 6.525.002 9.593 0 .421.18.553.563.553h2.058c.457 0 .527-.283.527-.6.001-.957.017-6.521.017-7.055 0-2.996 1.574-4.257 3.368-4.136.386.026.62.1.82-.212.042-.066.98-1.45 1.159-1.75a.437.437 0 0 0-.231-.647M102.492 23.63c.231-1.967 1.967-3.38 4.037-3.265 1.86.103 3.269 1.58 3.283 3.264h-7.32zm10.282-.942c-1.28-5.435-7.698-6.37-11.036-3.5-2.54 2.217-2.538 5.838-2.268 7.92.508 2.949 1.974 4.789 4.762 5.59.841.241 2.089.38 3.32.256 2.51-.253 4.201-1.686 4.305-1.77.267-.219.214-.534.037-.82-.08-.132-.702-1.261-.813-1.442-.17-.278-.407-.402-.81-.16-.152.091-.552.342-.772.472-1.797 1.055-4.58 1.226-6.073-.437-.542-.603-.934-1.498-.931-2.4h9.79c.367 0 .663-.301.663-.672v-.834l-.002-.007c.009-.735-.005-1.49-.172-2.196zM126.643 12.056c-4.292-.422-5.691 1.574-5.61 4.825v.999h-1.746c-.447 0-.615.207-.615.517v1.677c0 .362.184.476.509.476l1.852-.004v4.613l.002 6.556c0 .527.292.584.583.584l2.038.001c.515 0 .593-.332.593-.683v-11.07h2.426c.279 0 .466-.126.466-.517v-1.678c0-.37-.243-.472-.534-.472h-2.358v-1.308c0-.457-.15-1.952 2.031-1.811.158.01.297.03.445.03.288 0 .502-.172.498-.501l.036-1.622c0-.288-.103-.561-.616-.612M135.845 13.376c0-.528.375-.676.759-.675.441.001 1.566-.001 2.007-.001.61 0 .694.464.694.72v5.113h3.081c.374 0 .541.226.541.518v1.642c0 .37-.26.511-.627.511h-2.995v6.708c0 .618.004 2.15 1.717 2.167l.868.011c.437.007.615.37.675.589l.43 1.839c.045.303-.202.443-.462.46h-.004c-1.103.041-2 .03-2.745-.078-2.578-.376-3.923-1.81-3.923-4.562l-.016-14.962M131.688 18.3h-1.702c-.32 0-.58.197-.58.61v13.444c0 .357.26.646.58.646h1.702c.32 0 .58-.29.58-.646V18.946c0-.439-.26-.646-.58-.646M130.447 16.2h1.492c.576 0 1.044-.395 1.044-.882v-1.736c0-.487-.468-.882-1.044-.882h-1.492c-.576 0-1.042.395-1.042.882v1.736c0 .487.466.882 1.042.882M116.137 32.3h1.492c.576 0 1.043-.395 1.043-.882v-1.736c0-.487-.467-.882-1.043-.882h-1.492c-.576 0-1.042.395-1.042.882v1.736c0 .487.466.882 1.042.882"/>
        </g>
    </g>
</svg>
