<svg xmlns="http://www.w3.org/2000/svg" width="77" height="87" viewBox="0 0 77 87">
    <g fill="none" fill-rule="evenodd">
        <path fill="#262626" d="M73.97 39.865H3.12c-1.333 0-2.417 1.1-2.417 2.453v3.483c0 1.352 1.084 2.453 2.417 2.453h70.85c1.336 0 2.42-1.1 2.42-2.453v-3.483c0-1.353-1.084-2.453-2.42-2.453M43.373 53.858a2.4 2.4 0 0 0-1.834-.854h-6.13c-.705 0-1.374.311-1.833.855L14.939 75.79a2.46 2.46 0 0 0-.577 1.783c.049.654.345 1.249.835 1.675l2.604 2.27c.438.382.997.592 1.574.592.707 0 1.376-.311 1.836-.855l15.843-18.632a1.86 1.86 0 0 1 1.42-.662c.547 0 1.065.241 1.42.662l15.858 18.722c.46.543 1.129.854 1.837.854.575 0 1.133-.21 1.573-.592l2.604-2.27c.49-.426.786-1.021.835-1.674a2.465 2.465 0 0 0-.577-1.784L43.373 53.858"/>
        <path fill="#262626" d="M37.196 72.812c-1 0-1.81.822-1.81 1.836v10.445c0 1.015.81 1.837 1.81 1.837h2.556c1 0 1.81-.822 1.81-1.837V74.648c0-1.014-.81-1.836-1.81-1.836h-2.556z"/>
        <path fill="#DA2C6C" d="M37.18 9.54h2.59c.999 0 1.809-.821 1.809-1.836V1.836c0-1.014-.81-1.836-1.81-1.836h-2.59c-1 0-1.81.822-1.81 1.836v5.868c0 1.015.81 1.837 1.81 1.837"/>
        <path fill="#00B4DF" d="M22.228 55.978l-1.418-2.144a1.794 1.794 0 0 0-2.51-.503L6.836 61.12a1.853 1.853 0 0 0-.495 2.55l1.42 2.144a1.794 1.794 0 0 0 2.509.501l11.46-7.788a1.853 1.853 0 0 0 .497-2.549"/>
        <path fill="#262626" d="M56.213 32.91a1.793 1.793 0 0 0 2.51.503l11.461-7.789a1.852 1.852 0 0 0 .495-2.548L69.26 20.93a1.795 1.795 0 0 0-2.511-.503l-11.462 7.79a1.853 1.853 0 0 0-.495 2.55l1.42 2.143"/>
        <path fill="#FBD020" d="M70.25 61.212l-11.464-7.789a1.792 1.792 0 0 0-2.509.503L54.86 56.07a1.852 1.852 0 0 0 .494 2.548l11.462 7.789c.829.563 1.953.339 2.509-.502l1.42-2.144a1.853 1.853 0 0 0-.495-2.55"/>
        <path fill="#262626" d="M6.891 25.675l11.46 7.789c.83.563 1.954.339 2.51-.502l1.42-2.144a1.853 1.853 0 0 0-.495-2.55L10.323 20.48a1.794 1.794 0 0 0-2.51.503l-1.418 2.144a1.853 1.853 0 0 0 .496 2.55M38.474 20.21c2.508 0 4.541 2.062 4.541 4.606 0 2.545-2.033 4.608-4.54 4.608-2.509 0-4.541-2.063-4.541-4.608 0-2.544 2.032-4.607 4.54-4.607zm0 15.8c6.093 0 11.032-5.012 11.032-11.194 0-6.182-4.939-11.193-11.032-11.193s-11.032 5.011-11.032 11.193c0 6.182 4.94 11.194 11.032 11.194z"/>
    </g>
</svg>
