<svg xmlns="http://www.w3.org/2000/svg" width="55" height="18" viewBox="0 0 55 18">
    <g fill="#FFF" fill-rule="evenodd">
        <path d="M41.828.046c-3.503-.35-4.646 1.302-4.58 3.992v.826h-1.425c-.364 0-.502.172-.502.428v1.387c0 .3.15.394.416.394l1.511-.003v3.816l.002 5.423c0 .437.239.483.476.483l1.664.001c.42 0 .484-.274.484-.565V7.07h1.98c.228 0 .38-.104.38-.428V5.255c0-.307-.198-.391-.435-.391h-1.925V3.782c0-.378-.124-1.615 1.658-1.498.128.008.242.025.363.025.235 0 .41-.142.406-.415l.03-1.341c0-.238-.084-.465-.503-.507M49.217.605c0-.436.292-.559.59-.558h1.56c.474 0 .538.382.538.594v4.223H54.3c.29 0 .421.186.421.428v1.356c0 .306-.203.422-.487.422h-2.328v5.54c0 .51.003 1.775 1.335 1.79l.674.009c.34.006.478.305.525.486l.333 1.519c.035.25-.156.366-.358.38h-.004c-.857.034-1.554.025-2.132-.064-2.003-.31-3.048-1.496-3.048-3.768L49.217.605M24.873.605c0-.436.292-.559.59-.558h1.56c.475 0 .539.382.539.594v4.223h2.394c.29 0 .42.186.42.428v1.356c0 .306-.202.422-.487.422h-2.327v5.54c0 .51.003 1.775 1.334 1.79l.675.009c.34.006.477.305.524.486l.334 1.519c.035.25-.157.366-.359.38h-.003c-.858.034-1.554.025-2.133-.064-2.003-.31-3.048-1.496-3.048-3.768L24.873.605M46.146 4.864h-1.56c-.294 0-.532.16-.532.495v10.909c0 .29.238.524.531.524h1.561a.528.528 0 0 0 .532-.524V5.388c0-.356-.238-.524-.532-.524M44.812 3.077h1.108a.77.77 0 0 0 .774-.764V.81a.769.769 0 0 0-.774-.763h-1.108a.77.77 0 0 0-.775.763v1.503a.77.77 0 0 0 .775.764M33.183 16.793h1.108a.769.769 0 0 0 .774-.764v-1.502a.769.769 0 0 0-.774-.764h-1.108a.769.769 0 0 0-.774.764v1.502c0 .422.346.764.774.764M17.076 14.966c.958 0 1.867-.577 2.408-1.096.285-.273.384-.53.384-.908v-1.159c0-.09-.053-.17-.136-.205a5.566 5.566 0 0 0-2.066-.412c-1.41 0-2.429.665-2.47 1.9-.032 1.012.627 1.88 1.88 1.88m.391-5.958c1.253 0 2.427.36 2.427.36.033-1.649-.573-2.263-2.069-2.386-1.378-.115-3.052.461-3.678.641-.366.078-.6-.154-.679-.489l-.235-.978c-.078-.412.105-.592.392-.695.208-.078 2.402-.974 4.618-.883 3.764.155 4.208 2.354 4.208 5.315v6.334c0 .31-.286.567-.574.567h-.86c-.236 0-.366-.103-.497-.412l-.264-.735c-.676.572-1.876 1.43-3.728 1.43-2.27 0-3.889-1.493-3.889-3.965 0-2.189 1.723-4.104 4.828-4.104M2.603 9.462c.191-1.59 1.63-2.73 3.347-2.638 1.543.084 2.711 1.277 2.723 2.638h-6.07zm8.527-.76C10.068 4.31 4.745 3.553 1.977 5.872c-2.105 1.792-2.104 4.717-1.88 6.4.42 2.383 1.637 3.87 3.949 4.517.697.195 1.732.307 2.753.207 2.082-.204 3.484-1.363 3.57-1.43.222-.177.177-.432.031-.663-.068-.107-.582-1.019-.674-1.165-.141-.225-.338-.325-.672-.129-.126.073-.458.276-.64.38-1.49.853-3.8.992-5.037-.352-.45-.488-.774-1.21-.772-1.94h8.119c.304 0 .55-.243.55-.543v-.674l-.002-.005c.007-.594-.005-1.204-.142-1.775z"/>
    </g>
</svg>
