<svg xmlns="http://www.w3.org/2000/svg" width="23" height="19" viewBox="0 0 23 19">
    <g fill="none" fill-rule="evenodd">
        <path fill="none" d="M1-1h21v21H1z"/>
        <path fill="#000" fill-rule="nonzero" stroke="#000" stroke-width=".5" d="M12.38 9.524a1.06 1.06 0 0 1-.812.067.775.775 0 0 1-.42-.143L1.38 2.81c-.415-.282-.502-.867-.202-1.31a1 1 0 0 1 .675-.427c.134-.047.254-.07.38-.07H20.83a.91.91 0 0 1 .129.009c.053-.006.108-.012.164-.012.242 0 .461.087.62.227.16.143.256.338.256.55v15.425c0 .429-.392.775-.876.775-.117.014-.178.023-.243.023H2.283a.72.72 0 0 1-.21-.032 1.015 1.015 0 0 1-.985-1.016V8.768A1.021 1.021 0 0 1 2.11 7.75a1.02 1.02 0 0 1 1.022 1.02v7.36h17.115V2.804H4.827l6.87 4.668L16.33 5.09a1.076 1.076 0 0 1 1.443.46 1.065 1.065 0 0 1-.461 1.437L12.38 9.524z"/>
    </g>
</svg>
