<svg xmlns="http://www.w3.org/2000/svg" width="68" height="17" viewBox="0 0 68 17">
    <g fill="none" fill-rule="evenodd">
        <path fill="#FFF" d="M58.054 3.174h.994c.384 0 .695-.33.695-.738V.986c0-.408-.311-.738-.695-.738h-.994c-.383 0-.694.33-.694.738v1.45c0 .407.31.738.694.738M19.986 3.174h.994c.383 0 .694-.33.694-.738V.986c0-.408-.31-.738-.694-.738h-.994c-.384 0-.695.33-.695.738v1.45c0 .407.311.738.695.738"/>
        <g fill="#FFF">
            <path d="M55.378.248c-3.143-.337-4.168 1.257-4.108 3.853V4.9H49.99c-.327 0-.45.166-.45.413v1.34c0 .288.134.38.373.38l1.356-.003v3.683l.001 5.236c0 .42.214.466.427.466l1.493.001c.377 0 .434-.265.434-.546V7.03h1.776c.204 0 .341-.1.341-.413v-1.34c0-.296-.178-.377-.39-.377h-1.727V3.854c0-.364-.111-1.559 1.487-1.446.115.008.217.024.326.024.21 0 .367-.137.365-.4l.025-1.295c0-.23-.074-.448-.45-.489"/>
            <path stroke="#FFF" stroke-width=".3" d="M62.006.787c0-.421.261-.539.529-.538h1.399c.425 0 .483.369.483.573V4.9h2.147c.261 0 .378.18.378.413V6.62c0 .296-.182.407-.437.407h-2.088v5.349c0 .492.003 1.714 1.197 1.727l.605.01c.305.005.429.294.47.469l.3 1.466c.031.241-.14.354-.322.366h-.003c-.769.034-1.394.025-1.913-.061-1.797-.3-2.734-1.444-2.734-3.638L62.006.787M59.251 4.899h-1.4c-.263 0-.477.154-.477.477v10.532c0 .28.214.506.477.506h1.4c.263 0 .477-.226.477-.506V5.405c0-.344-.214-.506-.477-.506M21.183 4.899h-1.4c-.264 0-.477.154-.477.477v10.532c0 .28.213.506.477.506h1.4c.263 0 .477-.226.477-.506V5.405c0-.344-.214-.506-.477-.506M47.623 16.415h.994c.383 0 .694-.33.694-.737v-1.45c0-.408-.31-.738-.694-.738h-.994c-.384 0-.695.33-.695.737v1.45c0 .408.311.738.695.738M1 5.477c0-.273.234-.546.515-.546h.538c.258 0 .398.124.469.348l.25.865c.235-.273 1.3-1.527 3.495-1.462 1.568.047 2.525.702 3.3 1.815.305-.324 1.592-1.815 3.652-1.815 3.187 0 4.12 2.436 4.12 5.419v5.766c0 .299-.211.547-.515.547h-1.311c-.328 0-.515-.248-.515-.547v-5.866c0-1.576-.423-2.805-1.993-2.909-1.731-.114-2.612 1.541-2.67 1.612.009.053.028.626.028 1.223v5.94c0 .299-.234.547-.491.547H8.537c-.304 0-.515-.248-.515-.547v-5.866c0-1.864-.711-2.9-2.13-2.957-.872-.036-1.525.322-1.935.75-.492.514-.616 1.17-.616 1.741v6.332c0 .299-.258.547-.515.547H1.515c-.283 0-.515-.246-.515-.547V5.477zM39.867 14.242c.891 0 1.567-.31 2.02-.724.43-.392.672-1.018.672-1.706V8.468c0-.337-.3-.633-.63-.882-.446-.336-1.104-.543-1.851-.543-1.855 0-3.137 1.665-3.137 3.629 0 2.108 1.194 3.57 2.926 3.57m-.047-9.56c1.434-.044 2.24.339 2.716.596V.795c0-.3.232-.546.515-.546h1.334c.28 0 .515.273.515.546v15.176c0 .244-.187.443-.417.443h-.789c-.257 0-.391-.095-.461-.393l-.215-.697c-.333.384-1.431 1.43-3.478 1.363-3.026-.099-4.86-2.499-4.86-6.03 0-3.356 2.146-5.884 5.14-5.975M24.127 16.415h1.543c.416 0 .37-.439.37-.439 0-.387.024-4.557.04-6.12.034-1.156.562-2.133 1.47-2.582 1.144-.564 2.932-.347 3.037 1.61.018.303.055 6.982.055 7.072 0 .233.076.458.415.458h1.47c.4 0 .44-.28.44-.542 0-1.873.012-4.038-.005-5.911-.005-.634.001-1.287-.084-1.914-.243-1.79-1.227-2.828-2.776-3.238-1.658-.44-3.578.228-4.52 1.45a86.39 86.39 0 0 0-.398-1.069c-.091-.213-.167-.291-.359-.291h-.817c-.278 0-.27.23-.273.387-.026 3.369-.027 7.348-.027 10.718 0 .25.118.411.419.411"/>
        </g>
    </g>
</svg>
