<?xml version="1.0" encoding="UTF-8"?>
<svg width="17px" height="17px" viewBox="0 0 17 17" version="1.1" xmlns="http://www.w3.org/2000/svg" xmlns:xlink="http://www.w3.org/1999/xlink">
    <!-- Generator: Sketch 47.1 (45422) - http://www.bohemiancoding.com/sketch -->
    <title>close</title>
    <desc>Created with Sketch.</desc>
    <defs></defs>
    <g id="Page-1" stroke="none" stroke-width="1" fill="none" fill-rule="evenodd">
        <g id="09Eat.fit-browse-Copy-5" transform="translate(-890.000000, -177.000000)" fill="#FFFFFF">
            <g id="Group-5" transform="translate(522.000000, 162.000000)">
                <g id="Group-4">
                    <path d="M382.233143,15.4742489 L376.5,21.213877 L370.766857,15.4742489 C370.134526,14.841917 369.108202,14.841917 368.474249,15.4742489 C367.841917,16.1065808 367.841917,17.1280401 368.474249,17.760372 L374.207392,23.5 L368.474249,29.239628 C367.841917,29.8719599 367.841917,30.8934192 368.474249,31.5257511 C369.108202,32.158083 370.134526,32.158083 370.766857,31.5257511 L376.5,25.786123 L382.233143,31.5257511 C382.865474,32.158083 383.891798,32.158083 384.525751,31.5257511 C385.158083,30.8934192 385.158083,29.8719599 384.525751,29.239628 L378.792608,23.5 L384.525751,17.760372 C385.158083,17.1280401 385.158083,16.1065808 384.525751,15.4742489 C383.891798,14.841917 382.865474,14.841917 382.233143,15.4742489 Z" id="close"></path>
                </g>
            </g>
        </g>
    </g>
</svg>