<svg xmlns="http://www.w3.org/2000/svg" width="22" height="22" viewBox="0 0 22 22">
    <g fill="none" fill-rule="evenodd">
        <path fill="none" d="M1 1h21v21H1z"/>
        <path fill="#1D1D1B" fill-rule="nonzero" stroke="#000" stroke-width=".7" d="M15.748 14.99a7.68 7.68 0 0 1-9.11-.04.962.962 0 0 1-.199.205c-1.636 1.316-2.774 3.094-3.343 5.121-.106.462-.569.782-1.031.782-.107 0-.178 0-.284-.035-.57-.142-.89-.747-.747-1.316.675-2.454 2.098-4.588 4.054-6.188l.043-.035a7.686 7.686 0 0 1-1.643-4.751C3.488 4.48 6.969 1 11.22 1c4.252 0 7.733 3.481 7.733 7.733a7.687 7.687 0 0 1-1.677 4.793c1.952 1.6 3.336 3.73 4.046 6.145.143.57-.177 1.174-.746 1.316a1.1 1.1 0 0 1-.285.071 1.1 1.1 0 0 1-1.031-.782c-.57-2.027-1.707-3.805-3.343-5.121a1.016 1.016 0 0 1-.17-.164zM11.22 3.01c-3.146 0-5.724 2.577-5.724 5.724a5.722 5.722 0 0 0 5.724 5.724c3.147 0 5.725-2.578 5.725-5.724 0-3.147-2.578-5.724-5.725-5.724z"/>
    </g>
</svg>
